<?xml version="1.0" encoding="UTF-8"?>
<svg id="Layer_2" data-name="Layer 2" xmlns="http://www.w3.org/2000/svg" viewBox="0 0 108.72 116.88">
  <defs>
    <style>
      .cls-1 {
        fill: #fff;
      }
    </style>
  </defs>
  <g id="Layer_4" data-name="Layer 4">
    <g>
      <path class="cls-1" d="m49.19,116.88c.49-3.69.84-9.06-.09-15.39-.43-2.96-2.23-14.74-9.89-23.79C25.78,61.83,2.47,63.99,0,64.26c1.33,1.3,3.2,3.32,4.99,6.1,2.22,3.46,3.15,6.31,3.88,8.3.7,1.91,3.63,9.91,8.29,16.15,2.68,3.59,6.69,8.96,13.58,11.45,5.87,2.12,9.9.74,14.22,4.42,2.33,1.98,3.56,4.43,4.23,6.19Z"/>
      <path class="cls-1" d="m53.02,98.36c-.27-4.43-.65-19.43,9.54-30.99,6.76-7.67,15.6-11,25.33-13.06,4.68-.99,13.37-3.32,20.83-9.42-.41,6.49-1.33,13.13-3.78,19.21s-6.92,10.49-12.12,13.89c-5.01,3.28-12.41,4.76-18.22,5.83-5.5,1.01-11.01,1.85-15.4,5.63-3.42,2.94-5.22,6.48-6.19,8.94Z"/>
      <path class="cls-1" d="m49.16,83.62c1.6-9.08,4.95-14.89,7.76-18.54,3.06-3.99,5.12-4.93,8.18-9.36,4.07-5.89,5.45-11.45,6.54-16.06,3.84-16.2,1.23-33.52.14-39.66-1.4,2.27-3.7,5.35-7.34,7.94-3.44,2.45-5.5,2.59-8.8,4.38-6.53,3.55-10.05,8.98-11.77,11.63-5.14,7.93-5.86,15.61-6.15,19.06-.64,7.82.99,13.59,2.9,20.37,1.42,5.03,3.93,12.19,8.54,20.23Z"/>
    </g>
  </g>
</svg>